# xmcd
#
# Track frame offsets:
# 187
# 14087
# 33340
# 47870
# 60575
# 76740
# 88432
# 102910
#
# Disc length: 1539 seconds
#
#
# Revision: 0
# Processed by: cddbd v1.5.1PL0 Copyright (c) Steve Scherf et al.
# Submitted via: FreeRIP 2.931 
#
DISCID=63060108
DTITLE=Juice Newton and Silver Spur - The Early Years
DYEAR=1900
DGENRE=
TTITLE0=Slip Away
TTITLE1=One Step Away
TTITLE2=Just Remember Who Your Friends Are
TTITLE3=Love Is A Word
TTITLE4=The Sweetest Thing (I've Ever Known)
TTITLE5=Roll On, Truckers
TTITLE6=Won't You Stay (Just A Little Bit Longer)
TTITLE7=You Please Me
EXTD=
EXTT0=
EXTT1=
EXTT2=
EXTT3=
EXTT4=
EXTT5=
EXTT6=
EXTT7=
PLAYORDER=
